<svg id="_50" data-name="50" xmlns="http://www.w3.org/2000/svg" viewBox="0 0 512 512"><defs><style>.cls-1{fill:#8d00af;}.cls-2{fill:#14a36d;}.cls-3{fill:#15be79;}.cls-4{fill:#33db92;}.cls-5{fill:#e52e44;}.cls-6{fill:#fa4654;}.cls-7{fill:#fb626e;}</style></defs><title>50-heart-icons</title><circle class="cls-1" cx="256" cy="256" r="256"/><path class="cls-2" d="M423.27,283.59,275.55,431.3a27.62,27.62,0,0,1-39.1,0L113.86,308.73,88.74,283.59A100.5,100.5,0,1,1,230.87,141.45L256,166.59l25.13-25.14A100.51,100.51,0,0,1,423.27,283.59Z"/><path class="cls-3" d="M423.27,283.59,303.6,403.26a27.64,27.64,0,0,1-39.1,0L141.91,280.68l-25.13-25.14a100.52,100.52,0,0,1-12.63-126.73,100.55,100.55,0,0,1,126.72,12.64L256,166.59l25.13-25.14A100.51,100.51,0,0,1,423.27,283.59Z"/><ellipse class="cls-4" cx="383.96" cy="159.3" rx="25.5" ry="42.15" transform="translate(27.31 372.85) rotate(-53.45)"/><ellipse class="cls-4" cx="424.09" cy="220.87" rx="16.11" ry="26.63" transform="translate(-27.84 64.68) rotate(-8.45)"/><path class="cls-5" d="M429.61,300l-43.85,43.85a9.6,9.6,0,0,1-6.79,2.81H133a9.64,9.64,0,0,1-6.8-2.81L82.39,300a9.61,9.61,0,0,1,6.8-16.4H422.81A9.61,9.61,0,0,1,429.61,300Z"/><path class="cls-6" d="M429.61,300l-32.24,32.24H193.46l-48.64-48.64h278A9.61,9.61,0,0,1,429.61,300Z"/><ellipse class="cls-7" cx="341.31" cy="300.3" rx="26.07" ry="12.16"/><ellipse class="cls-7" cx="392.24" cy="300.3" rx="19.46" ry="8.08"/><path class="cls-5" d="M160.52,302.73c9.76,9.76,13.87,23,10.24,32.9l-20.15,55c-5.81,15.85-28,16.1-43.64.5L72.15,356.27c-15.6-15.6-15.35-37.83.5-43.63l55-20.15c5-1.81,10.75-1.69,16.51.09a37.61,37.61,0,0,1,3.93,1.49A42.08,42.08,0,0,1,160.52,302.73Z"/><path class="cls-6" d="M148.06,294.07c3.11,7,3.81,14.35,1.57,20.43l-20.15,55c-5.81,15.85-28,16.1-43.64.5l-13.69-13.7c-15.6-15.6-15.35-37.83.5-43.63l55-20.15c5-1.81,10.75-1.69,16.51.09A37.61,37.61,0,0,1,148.06,294.07Z"/><ellipse class="cls-7" cx="80.31" cy="335.67" rx="10.21" ry="17.84" transform="translate(-75.3 27.6) rotate(-13.34)"/><ellipse class="cls-7" cx="98.05" cy="363.06" rx="5.5" ry="12.13" transform="translate(-262.45 255.98) rotate(-58.34)"/><path class="cls-5" d="M235.07,193.35l34.83,34.82c15.6,15.61,15.35,37.83-.51,43.65l-55,20.15c-5,1.8-10.74,1.68-16.5-.11a40.56,40.56,0,0,1-16.4-10.14,41.92,41.92,0,0,1-8.65-12.46c-3.12-7-3.81-14.35-1.59-20.43l20.15-55C197.24,178,219.47,177.75,235.07,193.35Z"/><path class="cls-6" d="M235.07,193.35,248.77,207c15.6,15.61,15.35,37.83-.51,43.65l-55,20.15c-4.95,1.81-10.73,1.69-16.5-.1a36,36,0,0,1-3.92-1.48c-3.12-7-3.81-14.35-1.59-20.43l20.15-55C197.24,178,219.47,177.75,235.07,193.35Z"/><ellipse class="cls-7" cx="214.24" cy="201.75" rx="10.21" ry="17.84" transform="translate(-31.51 363.64) rotate(-76.66)"/><ellipse class="cls-7" cx="241.62" cy="219.49" rx="5.5" ry="12.13" transform="matrix(0.85, -0.52, 0.52, 0.85, -79.24, 159.46)"/><path class="cls-6" d="M183.89,268l11,11c7,7,8.5,16.79,3.38,21.91l-18.54,18.54c-5.12,5.12-14.94,3.62-21.92-3.37l-11-11c-6.72-7-8.09-16.56-3.05-21.6L162.3,265C167.34,259.92,176.92,261.3,183.89,268Z"/><path class="cls-7" d="M183.89,268c6.72,7,8.1,16.55,3.06,21.59l-18.54,18.54c-5,5-14.63,3.66-21.6-3-6.72-7-8.09-16.56-3.05-21.6L162.3,265C167.34,259.92,176.92,261.3,183.89,268Z"/></svg>