<?xml version="1.0" encoding="utf-8"?>
<!-- Generator: Adobe Illustrator 22.0.0, SVG Export Plug-In . SVG Version: 6.00 Build 0)  -->
<svg version="1.1" xmlns="http://www.w3.org/2000/svg" xmlns:xlink="http://www.w3.org/1999/xlink" x="0px" y="0px"
	 viewBox="0 0 512 512" style="enable-background:new 0 0 512 512;" xml:space="preserve">
<style type="text/css">
	.st0{fill:#EFEFEF;}
	.st1{fill:#EDEDED;}
	.st2{fill:#E1902B;}
	.st3{fill:#827382;}
	.st4{fill:#98CDE6;}
	.st5{clip-path:url(#SVGID_2_);fill:#43B06D;}
	.st6{clip-path:url(#SVGID_2_);fill:#4D917B;}
	.st7{fill:#FFDBC5;}
	.st8{fill:#E8B494;}
	.st9{fill:#DB4646;}
	.st10{fill:#E7AD84;}
	.st11{fill:#9EC853;}
	.st12{fill:#EBB290;}
	.st13{fill:#2961A5;}
	.st14{fill:#D49670;}
	.st15{fill:#4D917B;}
	.st16{fill:#78BEDE;}
	.st17{fill:#D4CDC1;}
	.st18{fill:#A18FA1;}
	.st19{fill:#3D2A3D;}
	.st20{fill:#FF826E;}
	.st21{fill:#E6A585;}
	.st22{fill:#142A7A;}
	.st23{fill:#FFD66C;}
	.st24{fill:#00D3D5;}
	.st25{fill:#B9EAF0;}
	.st26{fill:#EDB87B;}
	.st27{clip-path:url(#SVGID_4_);}
	.st28{fill:#D9904C;}
	.st29{fill:#F7B58D;}
	.st30{fill:#F7C8AB;}
	.st31{fill:#BABABA;}
	.st32{fill:#163A63;}
	.st33{fill:#F5BB47;}
	.st34{fill:#FFE999;}
	.st35{clip-path:url(#SVGID_6_);}
	.st36{fill:#B3B3B3;}
	.st37{fill:#F2C9B1;}
	.st38{clip-path:url(#SVGID_8_);}
	.st39{fill:#F2D7C4;}
	.st40{fill:#5D5660;}
	.st41{fill:#3B2D3F;}
	.st42{fill:#997999;}
	.st43{fill:#170F17;}
	.st44{clip-path:url(#SVGID_10_);}
</style>
<g id="Layer_6">
</g>
<g id="Layer_9">
</g>
<g id="Layer_7">
	<g>
		<g>
			<g>
				<g>
					<g>
						<g>
							<path class="st7" d="M114.6,125.2c7.2,1.1,12.1,7.9,11,15l-3.6,38.3c-1.1,7.2-7.8,12.1-15,11l0,0c-7.2-1.1-12.1-7.8-11-15
								l3.6-38.3C100.7,129,107.4,124.1,114.6,125.2L114.6,125.2z"/>
						</g>
						<path class="st7" d="M209,281.1V344h-64v-62.9c0-12.9,8.8-24.1,19.6-24.1h24.8C200.2,257,209,268.1,209,281.1z"/>
						<g>
							<path class="st7" d="M147.8,230.7c6.5-6.4,17-6.3,23.4,0.2l33.9,32.4c6.4,6.5,6.3,17-0.2,23.4l0,0c-6.5,6.4-17,6.3-23.4-0.2
								l-33.9-32.4C141.2,247.6,141.3,237.2,147.8,230.7L147.8,230.7z"/>
						</g>
						<g>
							<path class="st7" d="M116.2,212.5c9.7-6.5,22.8-4,29.4,5.7l35.1,48.6c6.5,9.7,4,22.8-5.6,29.3l0,0c-9.7,6.6-22.8,4-29.4-5.7
								l-35.1-48.6C104,232.2,106.5,219.1,116.2,212.5L116.2,212.5z"/>
						</g>
						<path class="st7" d="M122.1,172.5c-8.6,1.4-17.2,2.2-25.9,2.9l6.3,54c1.2,9.9,10.1,17,19.5,15.9c9.4-1.1,16.4-10.1,15.3-20
							L122.1,172.5z"/>
						<path class="st8" d="M157.6,214.6c-10.5,3.4-21.8-1.5-25.3-11l-5.6-15.2c-1.8,0.8-3,1.6-4.2,2.7c-6,5.4-6.7,14.1-1.3,19.4
							l29.5,28.7c3.5,3.4,8.6,4.6,13.4,3.5C161.4,233.4,159.1,224,157.6,214.6z"/>
						<path class="st7" d="M142.8,185c-7.7,2.9-11.6,11.5-8.7,19.1l15.7,41.7c2.9,7.7,11.5,11.6,19.1,8.7l0,0
							c7.7-2.9,11.6-11.5,8.7-19.1l-15.7-41.7C159,186,150.4,182.1,142.8,185L142.8,185z"/>
					</g>
					<rect x="146" y="316" class="st8" width="64" height="44"/>
					<path class="st0" d="M235,392v-40c0-12.2-10.1-22-22.3-22h-68c-12.2,0-21.7,9.8-21.7,22v40H235z"/>
				</g>
				<g>
					<g>
						<g>
							<path class="st7" d="M395.8,125.2c-7.2,1.1-12.1,7.9-11,15l3.6,38.3c1.1,7.2,7.8,12.1,15,11l0,0c7.2-1.1,12.1-7.8,11-15
								l-3.6-38.3C409.7,129,403,124.1,395.8,125.2L395.8,125.2z"/>
						</g>
						<path class="st7" d="M302,281.1V344h64v-62.9c0-12.9-9.3-24.1-20.1-24.1h-24.8C310.3,257,302,268.1,302,281.1z"/>
						<g>
							<path class="st7" d="M362.6,230.7c-6.5-6.4-17-6.3-23.4,0.2l-33.9,32.4c-6.4,6.5-6.3,17,0.2,23.4l0,0
								c6.5,6.4,17,6.3,23.4-0.2l33.9-32.4C369.2,247.6,369.1,237.2,362.6,230.7L362.6,230.7z"/>
						</g>
						<g>
							<path class="st7" d="M394.2,212.5c-9.7-6.5-22.8-4-29.4,5.7l-35.1,48.6c-6.5,9.7-4,22.8,5.6,29.3l0,0
								c9.7,6.6,22.8,4,29.4-5.7l35.1-48.6C406.4,232.2,403.9,219.1,394.2,212.5L394.2,212.5z"/>
						</g>
						<path class="st7" d="M388.5,172.5c8.6,1.4,17.2,2.2,25.9,2.9l-6.3,54c-1.2,9.9-10.1,17-19.5,15.9c-9.4-1.1-16.4-10.1-15.3-20
							L388.5,172.5z"/>
						<path class="st8" d="M353,214.6c10.5,3.4,21.8-1.5,25.3-11l5.6-15.2c1.8,0.8,3,1.6,4.2,2.7c6,5.4,6.7,14.1,1.3,19.4L359.9,239
							c-3.5,3.4-8.6,4.6-13.4,3.5C349.2,233.4,351.4,224,353,214.6z"/>
						<path class="st7" d="M367.7,185c7.7,2.9,11.6,11.5,8.7,19.1l-15.7,41.7c-2.9,7.7-11.5,11.6-19.1,8.7l0,0
							c-7.7-2.9-11.6-11.5-8.7-19.1l15.7-41.7C351.5,186,360,182.1,367.7,185L367.7,185z"/>
					</g>
					<rect x="301" y="316" class="st8" width="64" height="44"/>
					<path class="st0" d="M388,392v-40c0-12.2-10-22-22.1-22h-68c-12.2,0-21.9,9.8-21.9,22v40H388z"/>
				</g>
			</g>
			<g>
				<path class="st9" d="M335.4,149.6c-0.2-22.6-18.7-40.7-41.2-40.5c-18.5,0.2-34.1,12.7-38.9,29.6c-5.1-16.9-20.9-29.1-39.4-28.9
					c-22.6,0.2-40.7,18.7-40.5,41.2c0.1,12.5,5.8,23.6,14.7,31c0.3,0.4,0.7,0.9,1,1.3l47,55.8c10.4,12.3,27.1,12.2,37.2-0.3l46-56.7
					c1.1-1.3,2-2.6,2.7-3.9C331.1,170.8,335.5,160.7,335.4,149.6z"/>
				<g>
					<g>
						<g>
							<path class="st10" d="M214.2,120.3c-14.2,2.9-24.2,14.2-25.9,28.4c-0.7,5.5,8,5.5,8.7,0c1.3-10.5,9.5-18,19.6-20.1
								C222,127.6,219.6,119.2,214.2,120.3L214.2,120.3z"/>
						</g>
					</g>
				</g>
			</g>
		</g>
	</g>
</g>
</svg>
